# This file uses centimeters as units for non-parametric coordinates.

mtllib small rock platform_01.mtl
g default
v 0.695657 0.591617 0.221704
v -0.968702 0.215147 0.000331
v 0.710069 0.353382 0.863132
v 0.876913 0.185278 -0.502533
v -0.789323 0.075805 -0.259870
v -0.977762 -0.330293 0.677035
v -0.087116 0.047691 -0.646664
v 0.912574 -0.339375 0.715922
v 0.391300 -0.389304 -0.029832
v 0.900384 0.058336 0.394092
v 0.736625 0.109654 0.743614
v -0.437196 0.345457 0.182763
v -1.028503 -0.121980 0.340774
v 0.263344 -0.357087 -0.921520
v 0.825496 -0.354080 -0.580262
v 0.601262 0.100783 -1.003207
v -0.980419 -0.369364 0.078983
v 0.039268 0.010440 0.745696
v 0.063500 -0.347125 -0.648646
v 0.902276 0.610006 0.672038
v 0.601983 0.473590 -0.967257
v -0.893410 0.059646 0.799895
v -0.166715 -0.351436 0.225147
v 0.225012 0.339096 -1.002638
v 0.607118 -0.341382 0.889350
v -0.116413 0.399070 -0.633029
v 0.951289 -0.060440 0.351507
v -0.902471 0.241533 0.730670
v 0.894770 0.347787 0.358063
v -1.032470 -0.174005 0.004324
v 0.588884 0.549698 0.838445
v 0.738350 -0.348362 -0.917167
v 0.924898 0.463657 0.724841
v -0.441167 -0.405358 0.023062
v -0.431003 -0.241131 0.670454
v 0.618770 0.559923 -0.821126
v 0.461311 -0.116588 0.869018
v -1.032002 0.204038 0.589394
v 0.870896 -0.107299 -0.112920
v -0.547898 0.292780 0.677195
v 0.806799 0.019217 -0.704942
v -0.831699 0.291284 -0.080419
v -0.464154 -0.114509 0.703743
v 0.775247 0.570843 -0.070602
v -0.023277 -0.185150 -0.684932
v -0.772686 0.325549 0.350542
v 0.800198 0.282883 0.672554
v -0.877822 -0.203841 -0.159220
v 0.617291 -0.097623 -1.068747
v -0.003572 0.427020 -0.010474
v -0.734409 -0.040646 -0.234637
v 0.698522 -0.048491 0.850242
v 0.716380 0.574189 -0.572300
v -0.996549 -0.080039 0.751299
v 0.939406 -0.055726 0.693475
v 0.265993 0.485773 -0.954251
v -0.266738 0.366531 0.691667
v 0.856324 -0.358371 -0.027889
v 0.143432 0.135670 -0.943139
v -0.608754 0.032805 0.711885
v 0.792154 0.262768 -0.746090
v -0.054027 0.212894 -0.783959
v 0.574986 0.054590 0.846320
v -0.111846 -0.384016 -0.114815
v 0.330107 0.202172 -1.013885
v 0.873577 0.251872 -0.079298
v -1.068086 0.055556 0.565850
v 0.292922 -0.136457 -1.058140
v 0.550449 0.220275 0.866846
v -0.994569 -0.035935 -0.010598
v 0.148018 -0.086823 -0.970424
v 0.365849 0.528152 -0.147131
v -0.535764 -0.346222 0.612941
vt 0.703312 0.820241
vt 0.738489 0.750643
vt 0.833528 0.782148
vt 0.634274 0.723734
vt 0.786497 0.679530
vt 0.808975 0.878352
vt 0.660854 0.658132
vt 0.541494 0.750778
vt 0.895977 0.771513
vt 0.876995 0.826282
vt 0.572672 0.625118
vt 0.542645 0.715194
vt 0.912530 0.681128
vt 0.685765 0.635374
vt 0.906692 0.905008
vt 0.622718 0.595071
vt 0.570737 0.671497
vt 0.799116 0.618352
vt 0.984033 0.722432
vt 0.960474 0.833605
vt 0.866034 0.907376
vt 0.561115 0.576204
vt 0.519489 0.656921
vt 0.993630 0.796890
vt 0.646357 0.533081
vt 0.546462 0.586221
vt 0.747640 0.869701
vt 0.666407 0.883947
vt 0.609184 0.848389
vt 0.693997 0.935358
vt 0.593907 0.873039
vt 0.632419 0.811934
vt 0.740909 0.925986
vt 0.685108 0.966619
vt 0.576018 0.918278
vt 0.571663 0.832714
vt 0.526193 0.876645
vt 0.529803 0.850641
vt 0.715468 0.991591
vt 0.542303 0.933570
vt 0.382696 0.756140
vt 0.744614 0.963419
vt 0.358059 0.885062
vt 0.379976 0.806814
vt 0.345417 0.835319
vt 0.302627 0.801977
vt 0.268971 0.833271
vt 0.311263 0.756647
vt 0.257591 0.863729
vt 0.387965 0.718602
vt 0.323233 0.697129
vt 0.284164 0.733043
vt 0.135229 0.543698
vt 0.264394 0.569964
vt 0.155839 0.589070
vt 0.145500 0.504392
vt 0.382517 0.616345
vt 0.101969 0.563627
vt 0.348015 0.494478
vt 0.111415 0.467904
vt 0.371583 0.647422
vt 0.113026 0.637668
vt 0.095330 0.517136
vt 0.146842 0.424267
vt 0.421301 0.583276
vt 0.512360 0.618526
vt 0.029713 0.621943
vt 0.067160 0.389600
vt 0.412024 0.518369
vt 0.502001 0.679868
vt 0.394754 0.678016
vt 0.058665 0.426554
vt 0.493723 0.580495
vt 0.496490 0.533894
vt 0.067637 0.653102
vt 0.151848 0.674707
vt 0.113895 0.731274
vt 0.199842 0.683376
vt 0.076243 0.746378
vt 0.189733 0.758875
vt 0.043814 0.727874
vt 0.115892 0.780688
vt 0.273239 0.673000
vt 0.030247 0.639239
vt 0.246779 0.780709
vt 0.166721 0.792900
vt 0.737877 0.326834
vt 0.509824 0.439577
vt 0.671382 0.253292
vt 0.714845 0.509077
vt 0.556688 0.293852
vt 0.834692 0.206303
vt 0.810419 0.419159
vt 0.460334 0.366975
vt 0.644671 0.121081
vt 0.778868 0.539900
vt 0.573360 0.221659
vt 0.694579 0.078962
vt 0.926821 0.408476
vt 0.863368 0.493353
vt 0.787454 0.091980
vt 0.851211 0.592275
vt 0.896983 0.577688
vt 0.263880 0.450043
vt 0.236936 0.200308
vt 0.380455 0.248231
vt 0.105021 0.207090
vt 0.304403 0.148018
vt 0.348070 0.470452
vt 0.222048 0.117165
vt 0.551482 0.222522
vt 0.463743 0.327180
vt 0.116092 0.035471
vt 0.426303 0.081494
vt 0.014950 0.143526
vt 0.592726 0.147306
vt 0.508250 0.066232
vn -0.643918 -0.023174 -0.764743
vn -0.538511 0.074924 -0.839281
vn -0.556078 -0.252169 -0.791952
vn -0.220279 0.975387 0.009899
vn -0.211399 0.977221 0.018688
vn -0.216548 0.976221 -0.010002
vn 0.949157 0.296251 -0.106469
vn 0.989014 0.139138 -0.049919
vn 0.986003 0.106602 -0.128198
vn -0.110819 0.202607 0.972970
vn -0.176453 0.107112 0.978464
vn -0.172862 0.053752 0.983478
vn -0.589739 0.437993 -0.678506
vn -0.596542 0.441084 -0.670509
vn -0.598378 0.386010 -0.702097
vn -0.138634 0.044507 0.989343
vn -0.162405 0.023883 0.986435
vn -0.975774 -0.209412 0.063340
vn -0.980265 -0.195894 0.026565
vn -0.971952 -0.233878 0.024708
vn -0.374249 -0.678188 -0.632454
vn -0.535030 -0.468826 -0.702812
vn -0.403628 -0.634860 -0.658816
vn 0.053336 0.137865 -0.989014
vn 0.114241 0.203108 -0.972469
vn 0.039432 0.132291 -0.990426
vn -0.196797 0.980357 -0.013112
vn 0.978854 -0.193285 -0.066973
vn 0.986720 -0.133009 -0.093228
vn 0.995707 -0.049948 -0.077933
vn -0.000983 -0.999081 0.042854
vn 0.005777 -0.998537 0.053763
vn 0.003496 -0.999928 0.011509
vn 0.041599 -0.998420 0.037769
vn 0.066339 -0.997769 0.007551
vn -0.803800 -0.102211 -0.586053
vn -0.863262 0.043872 -0.502845
vn 0.648404 0.735693 0.195776
vn 0.648404 0.735693 0.195776
vn 0.648404 0.735693 0.195776
vn 0.980099 0.150416 -0.129546
vn 0.975915 0.155394 -0.153111
vn -0.140784 -0.142231 0.979771
vn 0.800726 -0.586960 0.119655
vn 0.800726 -0.586960 0.119655
vn 0.800725 -0.586960 0.119655
vn -0.131899 0.991243 -0.006323
vn -0.148131 0.988908 0.010915
vn -0.987218 0.148017 -0.059095
vn -0.991677 0.085516 -0.096245
vn -0.992270 0.081553 -0.093540
vn -0.206799 0.977725 0.035897
vn 0.299797 0.056896 0.952305
vn 0.299797 0.056896 0.952305
vn 0.299797 0.056896 0.952305
vn 0.989581 -0.012633 -0.143426
vn 0.976410 -0.038030 -0.212550
vn 0.783677 0.058120 -0.618444
vn 0.851482 0.060410 -0.520892
vn 0.733727 0.176700 -0.656066
vn -0.004631 -0.999965 -0.007036
vn -0.007716 -0.997979 -0.063070
vn 0.017889 -0.998611 0.049556
vn 0.008069 0.187476 -0.982236
vn -0.048484 0.134669 -0.989704
vn 0.914574 0.023329 -0.403746
vn 0.823227 0.100768 -0.558698
vn 0.032339 -0.505592 -0.862166
vn 0.024951 -0.516833 -0.855722
vn 0.022044 -0.521223 -0.853136
vn -0.008173 -0.998629 0.051698
vn -0.055144 -0.998235 0.022036
vn -0.031762 -0.999057 -0.029594
vn -0.968018 -0.250032 0.020635
vn 0.059944 -0.297247 0.952917
vn -0.136565 -0.284349 0.948945
vn 0.062587 -0.240583 0.968609
vn -0.026483 -0.997515 0.065286
vn 0.014643 -0.999794 -0.014048
vn 0.010838 -0.999265 -0.036758
vn -0.152972 0.987780 0.029850
vn -0.144426 0.989516 0.000058
vn 0.629744 -0.582916 0.513450
vn 0.629744 -0.582916 0.513450
vn 0.629744 -0.582916 0.513450
vn 0.883530 0.373037 -0.283229
vn 0.846930 0.402215 -0.347754
vn 0.909806 0.372062 -0.183908
vn 0.011470 0.860336 -0.509599
vn 0.011470 0.860335 -0.509599
vn 0.011470 0.860336 -0.509599
vn 0.088414 0.358152 0.929468
vn 0.088414 0.358152 0.929467
vn 0.088414 0.358153 0.929468
vn -0.954256 -0.148627 0.259434
vn -0.975612 -0.209578 0.065263
vn -0.048714 -0.076743 0.995860
vn -0.396218 0.087977 -0.913932
vn -0.370011 0.051869 -0.927578
vn -0.434440 0.137520 -0.890141
vn -0.623538 0.329850 -0.708802
vn 0.516708 -0.015056 0.856030
vn 0.514230 -0.017546 0.857473
vn 0.493569 -0.038015 0.868876
vn -0.651768 0.298597 -0.697165
vn -0.210474 0.977509 0.013282
vn -0.208151 0.977835 0.022640
vn 0.983455 -0.178304 -0.031999
vn 0.545710 0.014682 0.837846
vn -0.766969 0.228419 0.599653
vn -0.734046 0.255124 0.629355
vn -0.783454 0.231026 0.576911
vn -0.401285 0.915243 0.036061
vn -0.468953 0.882863 -0.025239
vn 0.907232 0.069237 0.414892
vn 0.907232 0.069238 0.414892
vn 0.907232 0.069238 0.414892
vn -0.790646 0.107688 -0.602729
vn -0.790646 0.107688 -0.602729
vn -0.790646 0.107688 -0.602729
vn -0.500554 -0.419734 -0.757145
vn -0.512556 -0.405683 -0.756775
vn -0.530836 -0.468693 -0.706074
vn -0.179112 0.105231 0.978185
vn 0.383888 0.349048 0.854866
vn 0.378753 0.353299 0.855410
vn 0.387073 0.346396 0.854508
vn 0.987055 0.110702 -0.116053
vn 0.363960 0.365380 0.856756
vn -0.193762 0.980685 -0.026702
vn 0.163970 0.986137 -0.025436
vn -0.160093 -0.025683 0.986768
vn 0.046515 0.111671 0.992656
vn -0.883370 0.143957 0.446020
vn -0.992000 0.069645 -0.105285
vn 0.998516 0.005845 -0.054153
vn 0.873861 0.444850 -0.196151
vn 0.905439 0.416824 -0.080237
vn 0.894568 0.428700 -0.126355
vn -0.148072 0.983607 0.102918
vn -0.211878 0.977211 0.012920
vn -0.623103 0.424528 -0.656901
vn -0.502294 0.863875 -0.037683
vn 0.195633 0.980540 -0.016417
vn -0.575899 -0.443918 -0.686496
vn -0.685206 -0.417138 -0.597066
vn -0.206870 0.967820 0.143278
vn 0.876434 -0.131639 0.463179
vn 0.912405 -0.185095 0.365045
vn 0.925891 -0.211330 0.313154
vn 0.940200 -0.250246 0.231088
vn -0.586252 0.130437 -0.799559
vn -0.698844 -0.410144 -0.586003
vn -0.698844 -0.410144 -0.586003
vn -0.698844 -0.410144 -0.586003
vn -0.594253 -0.427803 -0.681064
vn -0.670704 0.172243 -0.721449
vn 0.509809 0.393110 0.765219
vn 0.470482 0.412566 0.780023
vn 0.454169 0.420241 0.785575
vn 0.582635 -0.305780 0.753017
vn 0.582635 -0.305780 0.753017
vn 0.582635 -0.305780 0.753017
vn 0.830866 0.432054 -0.350701
vn -0.659145 0.238587 0.713164
vn 0.221813 -0.462434 0.858460
vn 0.221813 -0.462434 0.858460
vn 0.221813 -0.462433 0.858460
vn 0.995178 -0.091303 0.035840
vn 0.922247 0.385675 0.026730
vn -0.641601 0.395971 -0.656929
vn -0.025082 0.319494 -0.947257
vn 0.022125 0.195889 -0.980376
vn -0.090670 0.152545 0.984129
vn 0.055450 0.033366 0.997904
vn -0.622520 0.020831 -0.782327
vn 0.358778 0.460853 0.811722
vn -0.301626 -0.154228 -0.940870
vn -0.886531 0.274506 -0.372436
vn -0.886531 0.274506 -0.372436
vn -0.886531 0.274506 -0.372436
vn 0.017479 -0.528079 -0.849015
vn -0.717222 -0.408240 -0.564742
vn -0.030009 0.063817 0.997510
vn -0.964717 0.261676 -0.029089
vn -0.710317 0.120026 -0.693573
vn -0.570693 -0.375654 -0.730201
vn -0.491175 0.096045 -0.865750
vn 0.100071 -0.552582 0.827429
vn -0.224081 -0.286420 0.931532
s 1
g Group28793
usemtl initialShadingGroup
f 45/41/1 51/38/2 7/44/3
s 2
f 50/87/4 31/88/5 72/89/6
s 3
f 44/1/7 66/2/8 4/3/9
s 4
f 63/53/10 18/54/11 37/55/12
s 5
f 5/37/13 42/40/14 26/43/15
s 4
f 57/59/16 18/54/11 69/56/17
s 7
f 6/27/18 13/28/19 30/29/20
s 8
f 48/36/21 45/41/22 17/32/23
s 9
f 21/75/24 16/76/25 65/77/26
s 2
f 50/87/4 72/89/6 26/92/27
s 3
f 27/14/28 58/18/29 39/5/30
s 11
f 25/104/31 23/105/32 9/106/33
f 8/109/34 9/106/33 58/112/35
s 1
f 45/41/1 59/46/36 71/48/37
s off
f 11/11/38 55/16/39 10/7/40
s 3
f 29/4/41 44/1/7 20/8/42
s 4
f 69/56/17 18/54/11 63/53/43
s off
f 47/17/44 29/4/45 33/12/46
s 2
f 42/99/47 12/93/48 26/92/27
s 13
f 70/31/49 13/28/50 2/35/51
s 2
f 46/100/52 12/93/48 42/99/47
s off
f 40/69/53 22/73/54 60/65/55
s 3
f 39/5/30 15/13/56 41/9/57
f 21/15/58 61/10/59 16/20/60
s 11
f 32/116/61 19/114/62 14/117/63
s 9
f 65/77/26 49/78/64 68/80/65
s 3
f 61/10/59 32/19/66 49/24/67
s 17
f 49/78/68 32/83/69 68/80/70
s 11
f 73/107/71 17/113/72 34/110/73
s 7
f 6/27/18 30/29/20 17/32/74
s 4
f 6/70/75 35/61/76 54/66/77
s 11
f 73/107/71 6/115/78 17/113/72
f 34/110/73 17/113/72 19/114/62
f 64/108/79 19/114/62 15/111/80
s 2
f 31/88/5 20/94/81 1/91/82
s off
f 3/23/83 47/17/84 33/12/85
s 3
f 61/10/86 21/15/87 53/6/88
s off
f 36/84/89 21/75/90 56/81/91
f 28/74/92 22/73/93 40/69/94
s 7
f 54/33/95 67/30/96 6/27/18
s 4
f 43/57/97 35/61/76 37/55/12
f 54/66/77 35/61/76 43/57/97
s 22
f 59/82/98 65/77/99 68/80/100
s 5
f 5/37/13 26/43/15 62/45/101
s 23
f 8/67/102 52/58/103 25/62/104
s 11
f 8/109/34 25/104/31 9/106/33
s 5
f 62/45/101 26/43/15 24/47/105
s 2
f 56/101/106 26/92/27 36/98/107
s 3
f 27/14/28 8/25/108 58/18/29
s 23
f 55/16/109 52/22/103 8/25/102
s 25
f 54/33/110 28/39/111 38/34/112
s 2
f 38/103/113 46/100/52 42/99/114
s off
f 11/11/115 10/7/116 29/4/117
s 3
f 39/5/30 4/3/9 66/2/8
s off
f 70/31/118 2/35/119 5/37/120
s 1
f 51/38/121 5/37/122 62/45/123
s 4
f 31/64/124 57/59/16 69/56/17
s 28
f 3/60/125 20/68/126 31/64/127
s 11
f 15/111/80 19/114/62 32/116/61
s 3
f 32/19/66 41/9/57 15/13/56
f 20/8/42 33/12/128 29/4/41
s 28
f 3/60/125 33/72/129 20/68/126
s 11
f 9/106/33 64/108/79 15/111/80
f 9/106/33 23/105/32 64/108/79
f 25/104/31 73/107/71 23/105/32
f 23/105/32 73/107/71 34/110/73
s 2
f 26/92/27 72/89/6 53/95/130
f 20/94/81 44/97/131 1/91/82
s 4
f 37/55/12 35/61/76 25/62/132
f 52/58/133 37/55/12 25/62/132
s 25
f 54/33/110 38/34/112 67/30/134
s 13
f 13/28/50 38/34/135 2/35/51
s 3
f 10/7/136 39/5/30 66/2/8
s 29
f 39/5/137 10/7/138 27/14/139
s 2
f 12/93/48 46/100/52 40/96/140
f 57/90/141 31/88/5 50/87/4
s 3
f 39/5/30 41/9/57 4/3/9
f 61/10/86 53/6/88 4/3/9
s 5
f 42/40/14 5/37/13 2/35/142
s 2
f 2/35/143 38/34/113 42/40/114
s 4
f 18/54/11 57/59/16 43/57/97
f 18/54/11 43/57/97 37/55/12
s 3
f 4/3/9 53/6/88 44/1/7
s 2
f 1/91/82 44/97/131 53/95/144
s 8
f 19/50/145 45/41/22 71/48/146
f 19/50/145 17/32/23 45/41/22
s 2
f 38/103/113 28/102/147 46/100/52
f 28/102/147 40/96/140 46/100/52
s 30
f 3/23/148 11/11/149 47/17/150
f 29/4/151 47/17/150 11/11/149
s 1
f 48/36/152 51/38/2 45/41/1
s off
f 17/32/153 30/29/154 48/36/155
s 3
f 16/20/60 61/10/59 49/24/67
s 9
f 65/77/26 16/76/25 49/78/64
s 2
f 12/93/48 50/87/4 26/92/27
f 12/93/48 57/90/141 50/87/4
s 1
f 51/38/121 70/31/156 5/37/122
f 48/36/152 70/31/157 51/38/2
s 31
f 55/16/158 11/11/159 52/22/160
s off
f 63/26/161 11/11/162 3/23/163
s 2
f 53/95/130 36/98/107 26/92/27
s 3
f 36/21/164 53/6/88 21/15/87
s 25
f 28/39/111 54/33/110 22/42/165
s off
f 54/66/166 60/65/167 22/73/168
s 3
f 55/16/169 8/25/108 27/14/28
s 29
f 10/7/138 55/16/170 27/14/139
s 5
f 24/47/105 26/43/15 56/49/171
s 9
f 56/81/172 21/75/24 24/79/173
s 4
f 57/59/16 40/69/174 60/65/175
s 2
f 40/96/140 57/90/141 12/93/48
s 3
f 58/18/29 15/13/56 39/5/30
s 11
f 58/112/35 9/106/33 15/111/80
s 1
f 45/41/1 7/44/3 59/46/36
f 7/44/3 51/38/121 62/45/123
s 4
f 57/59/16 60/65/175 43/57/97
f 60/65/175 54/66/77 43/57/97
s 3
f 32/19/66 61/10/59 41/9/57
f 4/3/9 41/9/57 61/10/59
s 5
f 59/46/176 62/45/101 24/47/105
s 1
f 62/45/123 59/46/36 7/44/3
s 4
f 63/53/10 37/55/12 52/58/133
s 31
f 11/63/159 63/53/177 52/58/160
s 11
f 23/105/32 34/110/73 64/108/79
f 64/108/79 34/110/73 19/114/62
s 9
f 24/79/173 21/75/24 65/77/26
s 22
f 65/77/99 59/82/98 24/79/178
s 3
f 29/4/41 66/2/8 44/1/7
f 29/4/41 10/7/136 66/2/8
s off
f 67/30/179 38/34/180 13/28/181
s 7
f 6/27/18 67/30/96 13/28/19
s 17
f 32/83/69 14/85/182 68/80/70
s 8
f 71/48/146 14/51/183 19/50/145
s 4
f 3/60/184 69/56/17 63/53/43
f 3/60/184 31/64/124 69/56/17
s 13
f 30/29/185 13/28/50 70/31/49
s 1
f 30/29/186 70/31/157 48/36/152
s 8
f 14/51/183 71/48/146 68/52/187
s 22
f 71/86/188 59/82/98 68/80/100
s 2
f 72/89/6 1/91/82 53/95/130
f 31/88/5 1/91/82 72/89/6
s 4
f 6/70/75 73/71/189 35/61/76
f 35/61/76 73/71/190 25/62/132
