# This file uses centimeters as units for non-parametric coordinates.

mtllib attackCone.mtl
g default
v -0.951057 -0.160686 0.309017
v -0.809017 -0.160686 0.587785
v -0.587785 -0.160686 0.809017
v -0.309017 -0.160686 0.951057
v -0.000000 -0.160686 1.000000
v 0.309017 -0.160686 0.951057
v 0.587785 -0.160686 0.809017
v 0.809017 -0.160686 0.587785
v 0.951057 -0.160686 0.309017
v -0.951057 0.160686 0.309017
v -0.809017 0.160686 0.587785
v -0.587785 0.160686 0.809017
v -0.309017 0.160686 0.951057
v -0.000000 0.160686 1.000000
v 0.309017 0.160686 0.951057
v 0.587785 0.160686 0.809017
v 0.809017 0.160686 0.587785
v 0.951057 0.160686 0.309017
v 0.000000 -0.160686 0.000000
v 0.000000 0.160686 0.000000
vt 0.351397 0.204534
vt 0.373591 0.248091
vt 0.408159 0.282659
vt 0.451716 0.304853
vt 0.500000 0.312500
vt 0.548284 0.304853
vt 0.591841 0.282659
vt 0.626409 0.248091
vt 0.648603 0.204534
vt 0.500000 0.312500
vt 0.512500 0.312500
vt 0.525000 0.312500
vt 0.537500 0.312500
vt 0.550000 0.312500
vt 0.562500 0.312500
vt 0.575000 0.312500
vt 0.587500 0.312500
vt 0.600000 0.312500
vt 0.500000 0.688440
vt 0.512500 0.688440
vt 0.525000 0.688440
vt 0.537500 0.688440
vt 0.550000 0.688440
vt 0.562500 0.688440
vt 0.575000 0.688440
vt 0.587500 0.688440
vt 0.600000 0.688440
vt 0.648603 0.795466
vt 0.626409 0.751908
vt 0.591842 0.717341
vt 0.548284 0.695147
vt 0.500000 0.687500
vt 0.451716 0.695147
vt 0.408159 0.717341
vt 0.373591 0.751909
vt 0.351397 0.795466
vt 0.500000 0.150000
vt 0.500000 0.837500
vn -0.891006 0.000000 0.453991
vn -0.809017 0.000000 0.587785
vn -0.809017 0.000000 0.587785
vn -0.891006 0.000000 0.453991
vn -0.587785 0.000000 0.809017
vn -0.587785 0.000000 0.809017
vn -0.309017 0.000000 0.951057
vn -0.309017 0.000000 0.951057
vn 0.000000 0.000000 1.000000
vn 0.000000 0.000000 1.000000
vn 0.309017 0.000000 0.951057
vn 0.309017 0.000000 0.951057
vn 0.587785 0.000000 0.809017
vn 0.587785 0.000000 0.809017
vn 0.809017 0.000000 0.587785
vn 0.809017 0.000000 0.587785
vn 0.891007 0.000000 0.453991
vn 0.891007 0.000000 0.453991
vn 0.000000 -1.000000 -0.000000
vn 0.000000 -1.000000 0.000000
vn 0.000000 -1.000000 -0.000000
vn 0.000000 -1.000000 -0.000000
vn 0.000000 -1.000000 0.000000
vn 0.000000 -1.000000 -0.000000
vn 0.000000 -1.000000 -0.000000
vn 0.000000 -1.000000 0.000000
vn 0.000000 -1.000000 0.000000
vn 0.000000 -1.000000 0.000000
vn 0.000000 1.000000 0.000000
vn 0.000000 1.000000 -0.000000
vn 0.000000 1.000000 -0.000000
vn 0.000000 1.000000 -0.000000
vn 0.000000 1.000000 0.000000
vn 0.000000 1.000000 -0.000000
vn 0.000000 1.000000 -0.000000
vn 0.000000 1.000000 0.000000
vn 0.000000 1.000000 0.000000
vn 0.000000 1.000000 0.000000
vn -0.309017 0.000000 -0.951057
vn -0.000000 0.000000 -1.000000
vn -0.000000 0.000000 -1.000000
vn -0.309017 0.000000 -0.951057
vn 0.309017 0.000000 -0.951057
vn 0.309017 0.000000 -0.951057
s 1
g attackCone
usemtl initialShadingGroup
f 1/10/1 2/11/2 11/20/3 10/19/4
f 2/11/2 3/12/5 12/21/6 11/20/3
f 3/12/5 4/13/7 13/22/8 12/21/6
f 4/13/7 5/14/9 14/23/10 13/22/8
f 5/14/9 6/15/11 15/24/12 14/23/10
f 6/15/11 7/16/13 16/25/14 15/24/12
f 7/16/13 8/17/15 17/26/16 16/25/14
f 8/17/15 9/18/17 18/27/18 17/26/16
s 2
f 2/2/19 1/1/20 19/37/21
f 3/3/22 2/2/19 19/37/21
f 4/4/23 3/3/22 19/37/21
f 5/5/24 4/4/23 19/37/21
f 6/6/25 5/5/24 19/37/21
f 7/7/26 6/6/25 19/37/21
f 8/8/27 7/7/26 19/37/21
f 9/9/28 8/8/27 19/37/21
s 3
f 10/36/29 11/35/30 20/38/31
f 11/35/30 12/34/32 20/38/31
f 12/34/32 13/33/33 20/38/31
f 13/33/33 14/32/34 20/38/31
f 14/32/34 15/31/35 20/38/31
f 15/31/35 16/30/36 20/38/31
f 16/30/36 17/29/37 20/38/31
f 17/29/37 18/28/38 20/38/31
s 4
f 10/36/39 20/38/40 19/37/41 1/10/42
f 19/37/41 20/38/40 18/27/43 9/9/44
